<svg width="13067" height="7822" viewBox="0 0 13067 7822" fill="none" xmlns="http://www.w3.org/2000/svg">
<g clip-path="url(#clip0_5576_276)">
<path fill-rule="evenodd" clip-rule="evenodd" d="M13041 6840C13041 7335.95 12639 7738 12143 7738H5532.18C5066.6 7738 4689.18 7360.58 4689.18 6895V5691.98C4689.18 5446.21 4489.95 5246.98 4244.18 5246.98H4209C3963.23 5246.98 3764 5446.21 3764 5691.98V6703C3764 7274.61 3300.61 7738 2729 7738H1060C488.385 7738 25 7274.61 25 6703V939C25 467.349 407.348 84.9999 879 84.9999H3053.65C3488.85 84.9999 3841.65 437.8 3841.65 873V1708.46C3841.65 1942.5 4031.37 2132.22 4265.41 2132.22V2132.22C4499.45 2132.22 4689.18 1942.5 4689.18 1708.46V873C4689.18 437.8 5041.98 84.9999 5477.18 84.9999H12242C12683.3 84.9999 13041 442.724 13041 884V2181.76C13041 2623.03 12683.3 2980.76 12242 2980.76H7784.3C7633.74 2980.76 7511.69 3102.81 7511.69 3253.37V3253.37C7511.69 3403.93 7633.74 3525.99 7784.3 3525.99H12143C12639 3525.99 13041 3928.03 13041 4423.99V6840ZM11226.5 6420.5C11517.5 6420.5 11753.5 6184.55 11753.5 5893.5V5418C11753.5 5126.95 11517.5 4891 11226.5 4891H7189.24C6675.06 4891 6258.24 4474.18 6258.24 3960V2732.5C6258.24 2218.32 6675.06 1801.5 7189.24 1801.5H11491C11635.9 1801.5 11753.5 1683.97 11753.5 1539V1539C11753.5 1394.03 11635.9 1276.5 11491 1276.5H6467.49C6154.89 1276.5 5901.49 1529.91 5901.49 1842.5V2669.99C5901.49 3142.74 5518.24 3525.99 5045.49 3525.99H3400C2927.24 3525.99 2544 3142.74 2544 2669.99V1902.08C2544 1567.26 2272.57 1295.83 1937.75 1295.83V1295.83C1602.93 1295.83 1331.5 1567.26 1331.5 1902.08V5916.31C1331.5 6215.65 1574.16 6458.31 1873.5 6458.31H2002C2301.34 6458.31 2544 6215.65 2544 5916.31V4825.91C2544 4311.18 2961.27 3893.91 3476 3893.91H4969.49C5484.22 3893.91 5901.49 4311.18 5901.49 4825.91V5803.5C5901.49 6144.26 6177.73 6420.5 6518.49 6420.5H11226.5Z" fill="#585858"/>
<rect width="211.842" height="298.086" transform="matrix(1 -8.7423e-08 -8.74225e-08 -1 7628.2 1276)" fill="white"/>
<rect width="211.842" height="298.086" transform="matrix(1 -8.74233e-08 -8.74223e-08 -1 7840.05 977.915)" fill="white"/>
<rect width="211.842" height="298.086" transform="matrix(1 -8.74233e-08 -8.74223e-08 -1 7628.2 679.83)" fill="white"/>
<rect width="211.842" height="296.737" transform="matrix(1 -8.74233e-08 -8.74223e-08 -1 7840.05 381.737)" fill="white"/>
<rect width="211.842" height="298.086" transform="matrix(1 -8.74233e-08 -8.74222e-08 -1 7840.05 1276)" fill="#646464"/>
<rect width="211.842" height="298.086" transform="matrix(1 -8.74233e-08 -8.74223e-08 -1 7628.2 977.915)" fill="#646464"/>
<rect width="211.842" height="298.086" transform="matrix(1 -8.74233e-08 -8.74223e-08 -1 7840.04 679.824)" fill="#646464"/>
<rect width="211.842" height="296.737" transform="matrix(1 -8.74233e-08 -8.74223e-08 -1 7628.2 381.743)" fill="#646464"/>
<path d="M9217.07 687.755C9220.97 683.85 9220.97 677.518 9217.07 673.613L9153.43 609.973C9149.52 606.068 9143.19 606.068 9139.29 609.973C9135.38 613.879 9135.38 620.21 9139.29 624.116L9195.85 680.684L9139.29 737.253C9135.38 741.158 9135.38 747.49 9139.29 751.395C9143.19 755.3 9149.52 755.3 9153.43 751.395L9217.07 687.755ZM8509.29 690.684L9210 690.684L9210 670.684L8509.29 670.684L8509.29 690.684Z" fill="white"/>
</g>
<defs>
<clipPath id="clip0_5576_276">
<rect width="7822" height="13067" fill="white" transform="matrix(-4.37114e-08 -1 -1 4.37114e-08 13067 7822)"/>
</clipPath>
</defs>
</svg>
